<svg width="256" height="256" viewBox="0 0 256 256" fill="none" xmlns="http://www.w3.org/2000/svg">
  <rect width="256" height="256" rx="56" fill="#101820"/>
  <path d="M28 182C28 93.6344 99.6344 22 188 22H228V228H188C99.6344 228 28 156.366 28 68V182Z" fill="#E8505B"/>
  <path d="M228 228H92C44.5035 228 6 189.496 6 142V28H120C179.647 28 228 76.3528 228 136V228Z" fill="#52B788" fill-opacity="0.92"/>
  <rect x="52" y="52" width="152" height="152" rx="32" fill="#FFF9F1"/>
  <path d="M86 176V80H111L128 118L145 80H170V176H145V121L128 152L111 121V176H86Z" fill="#101820"/>
  <path d="M186 90C177.163 90 170 97.1634 170 106V150C170 158.837 177.163 166 186 166V90Z" fill="#E8505B"/>
</svg>
