<svg width="1200" height="420" viewBox="0 0 1200 420" fill="none" xmlns="http://www.w3.org/2000/svg">
  <rect width="1200" height="420" rx="36" fill="#F5F1E8"/>
  <rect x="24" y="24" width="1152" height="372" rx="28" fill="url(#bg)"/>
  <circle cx="1070" cy="76" r="84" fill="#FFFFFF" fill-opacity="0.25"/>
  <circle cx="1128" cy="310" r="112" fill="#FFFFFF" fill-opacity="0.18"/>
  <g transform="translate(84 74)">
    <rect width="208" height="208" rx="46" fill="#101820"/>
    <path d="M22 144C22 72.203 80.203 14 152 14H186V194H152C80.203 194 22 135.797 22 64V144Z" fill="#E8505B"/>
    <path d="M186 194H76C37.3401 194 6 162.66 6 124V20H98C147.706 20 188 60.2944 188 110V194H186Z" fill="#52B788" fill-opacity="0.92"/>
    <rect x="42" y="42" width="124" height="124" rx="26" fill="#FFF9F1"/>
    <path d="M70 142V66H90.5L104 96.5L117.5 66H138V142H117.5V99L104 124L90.5 99V142H70Z" fill="#101820"/>
    <path d="M151 74C143.82 74 138 79.8203 138 87V121C138 128.18 143.82 134 151 134V74Z" fill="#E8505B"/>
  </g>
  <text x="338" y="168" fill="#101820" font-family="Segoe UI, Arial, sans-serif" font-size="74" font-weight="700">MatAnyone</text>
  <text x="338" y="222" fill="#284B63" font-family="Segoe UI, Arial, sans-serif" font-size="28" font-weight="600">Windows-friendly Gradio demo for MatAnyone and MatAnyone 2</text>
  <text x="338" y="270" fill="#3F5C6E" font-family="Segoe UI, Arial, sans-serif" font-size="24">Local uv workflow, automatic checkpoint downloads, and image/video matting from one UI.</text>
  <rect x="338" y="304" width="192" height="44" rx="22" fill="#101820"/>
  <text x="373" y="333" fill="#FFF9F1" font-family="Segoe UI, Arial, sans-serif" font-size="20" font-weight="700">Local Windows Run</text>
  <defs>
    <linearGradient id="bg" x1="60" y1="46" x2="1148" y2="372" gradientUnits="userSpaceOnUse">
      <stop stop-color="#FFE9D6"/>
      <stop offset="0.5" stop-color="#FFFDF6"/>
      <stop offset="1" stop-color="#DDF4E7"/>
    </linearGradient>
  </defs>
</svg>
